# xmcd
#
# Track frame offsets:
#	150
#	13528
#	31113
#	49806
#	66979
#	84303
#	98766
#	114352
#	130278
#	149703
#	168656
#	185244
#	196127
#	213431
#	228417
#	242860
#	261582
#	276753
#
# Disc length: 3924 seconds
#
# Revision: 1
# Processed by: cddbd v1.4PL0 Copyright (c) Steve Scherf et al.
# Submitted via: audiograbber 1.81.02
#
DISCID=0d0f5212
DTITLE=Various Artist - Hott Country 78
DYEAR=2002
DGENRE=Country
TTITLE0=Paul Brandt - I'm Gonna Fly
TTITLE1=Keith Urban - Somebody Like You
TTITLE2=Alan Jackson - Work In Progress
TTITLE3=Travis Tritt - Strong Enough To Be Your Man
TTITLE4=Ty Herndon - A Few Short Years
TTITLE5=Carolyn Dawn Johnson - One Day Closer To You
TTITLE6=Sixwire - Look At Me Now
TTITLE7=Rascal Flatts - These Days
TTITLE8=Steve Azar - Waitin' On Joe
TTITLE9=Doc Walker - Rocket Girl
TTITLE10=Alabama - I'm In The Mood
TTITLE11=Willie Nelson - She Loves My Automobile
TTITLE12=Chris Cummings - Betty
TTITLE13=Tift Merritt - Neighborhood
TTITLE14=Eric Heatherly - The Last Man Committed
TTITLE15=Montgomery Gentry - My Town
TTITLE16=Stompin' Tom Connors - Ode For The Road
TTITLE17=Shannon Lawson - Goodbye On A Bad Day
EXTD=
EXTT0=
EXTT1=
EXTT2=
EXTT3=
EXTT4=
EXTT5=
EXTT6=
EXTT7=
EXTT8=
EXTT9=
EXTT10=
EXTT11=
EXTT12=
EXTT13=
EXTT14=
EXTT15=
EXTT16=
EXTT17=
PLAYORDER=
